<?xml version="1.0" standalone="no"?>
<!DOCTYPE svg PUBLIC "-//W3C//DTD SVG 20010904//EN"
 "http://www.w3.org/TR/2001/REC-SVG-20010904/DTD/svg10.dtd">
<svg version="1.0" xmlns="http://www.w3.org/2000/svg"
 width="24" height="24" viewBox="0 0 225.000000 225.000000"
 preserveAspectRatio="xMidYMid meet">
<metadata>
Created by potrace 1.15, written by Peter Selinger 2001-2017
</metadata>
<g transform="translate(0.000000,225.000000) scale(0.100000,-0.100000)"
fill="#000000" stroke="none">
<path d="M975 2239 c-171 -22 -370 -102 -511 -207 -385 -286 -549 -766 -418
-1221 68 -234 214 -441 418 -593 312 -232 745 -281 1107 -124 180 78 382 247
487 406 179 271 233 594 152 910 -80 314 -320 601 -616 736 -193 88 -405 119
-619 93z m272 -240 c186 -25 351 -108 489 -244 102 -102 153 -174 199 -284
109 -259 93 -541 -46 -788 -60 -107 -215 -262 -322 -322 -520 -293 -1160 -15
-1304 566 -12 48 -17 110 -16 208 0 123 3 151 26 228 51 167 126 287 255 408
194 183 453 265 719 228z"/>
<path d="M678 1572 c-150 -150 -150 -143 22 -316 l129 -131 -129 -131 c-122
-123 -130 -133 -130 -170 0 -37 7 -47 108 -147 100 -99 110 -107 146 -107 37
0 47 8 170 130 l131 129 131 -129 c123 -123 133 -130 170 -130 38 0 47 7 147
109 148 150 149 142 -23 315 l-129 131 129 131 c172 173 172 166 22 316 -150
150 -143 150 -316 -22 l-131 -129 -131 129 c-173 172 -166 172 -316 22z"/>
</g>
</svg>
